<svg width="142" height="39" viewBox="0 0 142 39" fill="none" xmlns="http://www.w3.org/2000/svg">
<g opacity="0.7">
<path d="M60.504 10.912V28H57.768V17.392L53.232 28H51.192L46.632 17.512V28H43.896V10.912H46.344L52.224 24.28L58.056 10.912H60.504ZM75.8946 15.88L70.2546 28.816C69.6146 30.32 68.7986 31.416 67.8066 32.104C66.8146 32.792 65.5906 33.248 64.1346 33.472L63.4626 31.168C64.5986 30.912 65.4466 30.584 66.0066 30.184C66.5826 29.8 67.0466 29.224 67.3986 28.456L67.7826 27.568L62.7426 15.88H65.8866L69.3666 24.592L72.9186 15.88H75.8946Z" fill="black"/>
<path d="M85.0558 10.912H96.2158V13.384H88.1278V18.064H95.7358V20.56H88.1278V28H85.0558V10.912ZM104.236 28.192C103.004 28.192 101.916 27.936 100.972 27.424C100.044 26.912 99.3238 26.184 98.8118 25.24C98.3158 24.28 98.0678 23.16 98.0678 21.88C98.0678 20.6 98.3158 19.488 98.8118 18.544C99.3238 17.584 100.044 16.848 100.972 16.336C101.916 15.824 103.004 15.568 104.236 15.568C105.452 15.568 106.524 15.824 107.452 16.336C108.38 16.848 109.092 17.584 109.588 18.544C110.1 19.488 110.356 20.6 110.356 21.88C110.356 23.16 110.1 24.28 109.588 25.24C109.092 26.184 108.38 26.912 107.452 27.424C106.524 27.936 105.452 28.192 104.236 28.192ZM104.212 25.84C105.236 25.84 106.012 25.512 106.54 24.856C107.084 24.184 107.356 23.192 107.356 21.88C107.356 20.584 107.084 19.6 106.54 18.928C105.996 18.24 105.228 17.896 104.236 17.896C103.228 17.896 102.452 18.24 101.908 18.928C101.364 19.6 101.092 20.584 101.092 21.88C101.092 23.192 101.356 24.184 101.884 24.856C102.428 25.512 103.204 25.84 104.212 25.84ZM118.839 28.192C117.607 28.192 116.519 27.936 115.575 27.424C114.647 26.912 113.927 26.184 113.415 25.24C112.919 24.28 112.671 23.16 112.671 21.88C112.671 20.6 112.919 19.488 113.415 18.544C113.927 17.584 114.647 16.848 115.575 16.336C116.519 15.824 117.607 15.568 118.839 15.568C120.055 15.568 121.127 15.824 122.055 16.336C122.983 16.848 123.695 17.584 124.191 18.544C124.703 19.488 124.959 20.6 124.959 21.88C124.959 23.16 124.703 24.28 124.191 25.24C123.695 26.184 122.983 26.912 122.055 27.424C121.127 27.936 120.055 28.192 118.839 28.192ZM118.815 25.84C119.839 25.84 120.615 25.512 121.143 24.856C121.687 24.184 121.959 23.192 121.959 21.88C121.959 20.584 121.687 19.6 121.143 18.928C120.599 18.24 119.831 17.896 118.839 17.896C117.831 17.896 117.055 18.24 116.511 18.928C115.967 19.6 115.695 20.584 115.695 21.88C115.695 23.192 115.959 24.184 116.487 24.856C117.031 25.512 117.807 25.84 118.815 25.84ZM139.538 10.336V28H136.586V26.056C136.218 26.728 135.69 27.256 135.002 27.64C134.314 28.008 133.53 28.192 132.65 28.192C131.61 28.192 130.682 27.928 129.866 27.4C129.05 26.872 128.41 26.128 127.946 25.168C127.498 24.192 127.274 23.08 127.274 21.832C127.274 20.584 127.498 19.488 127.946 18.544C128.394 17.6 129.026 16.872 129.842 16.36C130.658 15.832 131.594 15.568 132.65 15.568C133.514 15.568 134.282 15.752 134.954 16.12C135.642 16.472 136.17 16.976 136.538 17.632V10.336H139.538ZM133.442 25.84C134.434 25.84 135.202 25.496 135.746 24.808C136.306 24.12 136.586 23.144 136.586 21.88C136.586 20.616 136.314 19.64 135.77 18.952C135.226 18.264 134.458 17.92 133.466 17.92C132.458 17.92 131.674 18.264 131.114 18.952C130.57 19.624 130.298 20.584 130.298 21.832C130.298 23.096 130.57 24.08 131.114 24.784C131.674 25.488 132.45 25.84 133.442 25.84Z" fill="#C8151C"/>
</g>
<path d="M29.25 4.875C29.648 4.87505 30.0322 5.02118 30.3296 5.28566C30.627 5.55015 30.8171 5.91459 30.8636 6.30987L30.875 6.5V32.5C30.8745 32.9142 30.7159 33.3126 30.4316 33.6137C30.1473 33.9149 29.7587 34.0961 29.3452 34.1204C28.9318 34.1447 28.5246 34.0102 28.207 33.7443C27.8894 33.4785 27.6853 33.1014 27.6364 32.6901L27.625 32.5V24.375H26C25.602 24.3749 25.2178 24.2288 24.9204 23.9643C24.623 23.6999 24.4329 23.3354 24.3864 22.9401L24.375 22.75V13C24.375 9.40875 26.8125 4.875 29.25 4.875ZM19.5 4.875C19.898 4.87505 20.2822 5.02118 20.5796 5.28566C20.877 5.55015 21.0671 5.91459 21.1136 6.30987L21.125 6.5V14.625C21.1248 16.0662 20.6459 17.4664 19.7635 18.6059C18.8811 19.7453 17.6453 20.5594 16.25 20.9202V32.5C16.2495 32.9142 16.0909 33.3126 15.8066 33.6137C15.5223 33.9149 15.1337 34.0961 14.7202 34.1204C14.3068 34.1447 13.8996 34.0102 13.582 33.7443C13.2644 33.4785 13.0603 33.1014 13.0114 32.6901L13 32.5V20.9202C11.6601 20.5739 10.4657 19.8091 9.59037 18.7371C8.71507 17.6651 8.20458 16.3418 8.13313 14.9598L8.125 14.625V6.5C8.12546 6.08582 8.28405 5.68745 8.56838 5.38628C8.8527 5.08511 9.2413 4.90387 9.65477 4.8796C10.0682 4.85532 10.4754 4.98985 10.793 5.25568C11.1106 5.52151 11.3147 5.89859 11.3636 6.30987L11.375 6.5V14.625C11.375 15.1955 11.5252 15.7559 11.8104 16.25C12.0957 16.744 12.5059 17.1543 13 17.4395V6.5C13.0005 6.08582 13.1591 5.68745 13.4434 5.38628C13.7277 5.08511 14.1163 4.90387 14.5298 4.8796C14.9432 4.85532 15.3504 4.98985 15.668 5.25568C15.9856 5.52151 16.1897 5.89859 16.2386 6.30987L16.25 6.5L16.2516 17.4395C16.7051 17.1774 17.0885 16.8095 17.3692 16.3673C17.6499 15.9251 17.8195 15.4215 17.8636 14.8996L17.875 14.625V6.5C17.875 6.06902 18.0462 5.6557 18.351 5.35095C18.6557 5.0462 19.069 4.875 19.5 4.875Z" fill="black"/>
</svg>
